#!OML:ASF H:\LiuWeirdWalks\Patient Classification 1\Patient 1\Session 1\male.ASF
:FULLY-SPECIFIED
:DEGREES
623
root 0.64351 17.9278 -7.91717 1.0416 5.77503 -1.95376
lowerback 15.4101 1.59492 5.39421
upperback 3.17122 3.52739 8.55136
thorax -5.49772 1.71726 5.39186
lowerneck -17.0844 -1.36524 3.88703
upperneck 27.658 1.7826 -16.2304
head 12.1489 -0.816509 -6.64107
rclavicle -1.35174e-014 -2.22639e-014
rhumerus -9.47177 -24.8761 -20.5727
rradius 31.383
rwrist -2.5471
rhand -17.2774 -4.02231
rfingers 7.12502
rthumb 8.96771 -33.8117
lclavicle -1.35174e-014 -2.22639e-014
lhumerus -21.9668 20.0942 19.2486
lradius 43.9884
lwrist 4.66776
lhand -17.278 4.66209
lfingers 7.12502
lthumb 8.96713 34.4515
rfemur -3.93029 -2.49625 18.8373
rtibia 29.501
rfoot -14.5836 -22.9192
rtoes -7.75911
lfemur -29.6571 0.227339 -13.2066
ltibia 30.5452
lfoot 1.86097 6.1466
ltoes -20.8231
624
root 0.692282 17.9168 -7.82279 1.04276 5.49472 -2.08567
lowerback 15.3877 1.64652 5.48467
upperback 3.19817 3.60496 8.57712
thorax -5.45718 1.75389 5.3533
lowerneck -17.1077 -1.32212 3.96417
upperneck 27.6458 1.83212 -16.2735
head 12.1561 -0.792012 -6.66578
rclavicle 1.11319e-014 4.13472e-014
rhumerus -9.22063 -25.1861 -20.447
rradius 31.2579
rwrist -2.68178
rhand -17.1154 -4.04559
rfingers 7.12502
rthumb 9.12401 -33.8282
lclavicle 1.11319e-014 4.13472e-014
lhumerus -22.1876 20.0535 19.0166
lradius 44.0315
lwrist 4.71118
lhand -17.2602 4.6234
lfingers 7.12502
lthumb 8.9843 34.4121
rfemur -3.61324 -2.51582 18.8031
rtibia 29.4701
rfoot -14.6704 -22.7612
rtoes -7.99328
lfemur -29.5895 0.356073 -13.0821
ltibia 30.891
lfoot 2.57697 5.54118
ltoes -20.6588
625
root 0.742979 17.9034 -7.72721 1.03017 5.21907 -2.22273
lowerback 15.3664 1.68282 5.57812
upperback 3.22003 3.66326 8.60145
thorax -5.42115 1.781 5.31553
lowerneck -17.0797 -1.27488 4.04701
upperneck 27.6457 1.88284 -16.3024
head 12.1571 -0.763102 -6.68479
rclavicle 4.53229e-014 2.54444e-014
rhumerus -8.91204 -25.534 -20.32
rradius 31.1385
rwrist -2.86719
rhand -16.9061 -4.07923
rfingers 7.12502
rthumb 9.32596 -33.8529
lclavicle 4.53229e-014 2.54444e-014
lhumerus -22.4416 20.0234 18.7707
lradius 44.0646
lwrist 4.74767
lhand -17.2696 4.5478
lfingers 7.12502
lthumb 8.97515 34.3369
rfemur -3.30157 -2.5866 18.7541
rtibia 29.4878
rfoot -14.7749 -22.5619
rtoes -8.23055
lfemur -29.4804 0.519492 -12.9936
ltibia 31.2992
lfoot 3.02505 4.86334
ltoes -20.1696
626
root 0.795743 17.8877 -7.63042 0.998078 4.94908 -2.34232
lowerback 15.3487 1.70737 5.65757
upperback 3.2389 3.70421 8.6216
thorax -5.38979 1.79979 5.28467
lowerneck -16.9706 -1.22257 4.14175
upperneck 27.606 1.9319 -16.331
head 12.1248 -0.730061 -6.69995
rclavicle 6.36111e-015 9.54166e-015
rhumerus -8.54533 -25.9306 -20.1808
rradius 31.0184
rwrist -3.09734
rhand -16.6673 -4.08334
rfingers 7.12502
rthumb 9.55633 -33.8466
lclavicle 6.36111e-015 9.54166e-015
lhumerus -22.7219 20.0097 18.5219
lradius 44.0951
lwrist 4.76393
lhand -17.2751 4.50146
lfingers 7.12502
lthumb 8.96985 34.2908
rfemur -2.99022 -2.71886 18.6609
rtibia 29.5609
rfoot -14.9014 -22.3139
rtoes -8.46694
lfemur -29.3194 0.709681 -12.9706
ltibia 31.7427
lfoot 3.15924 4.22805
ltoes -19.3748
627
root 0.849845 17.87 -7.53295 0.944715 4.69262 -2.47468
lowerback 15.3375 1.71576 5.74659
upperback 3.2545 3.72673 8.6461
thorax -5.36413 1.80939 5.25687
lowerneck -16.7998 -1.16332 4.26564
upperneck 27.5415 1.98335 -16.3744
head 12.07 -0.691959 -6.72203
rclavicle 2.78299e-014 2.22639e-014
rhumerus -8.11525 -26.3809 -20.0444
rradius 30.8974
rwrist -3.3315
rhand -16.4552 -4.10315
rfingers 7.12502
rthumb 9.76104 -33.8569
lclavicle 2.78299e-014 2.22639e-014
lhumerus -23.0235 19.9962 18.2767
lradius 44.1377
lwrist 4.80672
lhand -17.2691 4.50265
lfingers 7.12502
lthumb 8.97567 34.2917
rfemur -2.68284 -2.89787 18.5644
rtibia 29.6908
rfoot -15.042 -22.0378
rtoes -8.72397
lfemur -29.1201 0.927236 -12.9757
ltibia 32.1972
lfoot 3.03552 3.71776
ltoes -18.3187
628
root 0.905504 17.8512 -7.43513 0.882216 4.45709 -2.58025
lowerback 15.3203 1.70904 5.81579
upperback 3.26667 3.72543 8.66368
thorax -5.33831 1.80763 5.23763
lowerneck -16.6062 -1.1067 4.37107
upperneck 27.511 2.03489 -16.3958
head 12.0236 -0.65294 -6.73392
rclavicle 1.66979e-014 1.20861e-013
rhumerus -7.63286 -26.8603 -19.9113
rradius 30.7981
rwrist -3.58053
rhand -16.3053 -4.14894
rfingers 7.12502
rthumb 9.90563 -33.8959
lclavicle 1.66979e-014 1.20861e-013
lhumerus -23.3447 19.9968 18.033
lradius 44.1864
lwrist 4.85876
lhand -17.2542 4.54501
lfingers 7.12502
lthumb 8.99005 34.3335
rfemur -2.38757 -3.14109 18.4128
rtibia 29.8789
rfoot -15.2021 -21.7084
rtoes -8.99569
lfemur -28.8966 1.17333 -13.059
ltibia 32.6431
lfoot 2.74217 3.41626
ltoes -17.1192
